<svg width="24" height="24" viewBox="0 0 24 24" fill="currentColor" xmlns="http://www.w3.org/2000/svg">
<path d="M22.875 12.0446H3.75V5.33027C3.75 4.50751 4.42288 3.83819 5.25 3.83819C5.78208 3.83819 6.24992 4.11539 6.51632 4.53199C5.74328 5.70731 5.82788 7.30983 6.83684 8.40367C6.64112 8.62343 6.64836 8.95927 6.85988 9.16967L7.3902 9.69719C7.60988 9.91567 7.96604 9.91567 8.18572 9.69719L12.6403 5.26627C12.8599 5.04779 12.8599 4.69351 12.6403 4.47499L12.1099 3.94744C11.8984 3.73706 11.5608 3.72988 11.3398 3.92455C10.4985 3.15665 9.35732 2.92537 8.33152 3.20812C7.6538 2.23735 6.52556 1.6001 5.25 1.6001C3.18225 1.6001 1.5 3.27345 1.5 5.33027V12.0446H1.125C0.503672 12.0446 0 12.5456 0 13.1636V13.9096C0 14.5277 0.503672 15.0287 1.125 15.0287H1.5V16.5207C1.5 17.8464 2.07947 19.0372 3 19.8568V21.37C3 21.988 3.50367 22.489 4.125 22.489H4.875C5.49632 22.489 6 21.988 6 21.37V20.9969H18V21.37C18 21.988 18.5037 22.489 19.125 22.489H19.875C20.4963 22.489 21 21.988 21 21.37V19.8568C21.9205 19.0372 22.5 17.8464 22.5 16.5207V15.0287H22.875C23.4963 15.0287 24 14.5277 24 13.9096V13.1636C24 12.5456 23.4963 12.0446 22.875 12.0446Z" />
</svg>
