<svg width="24" height="24" viewBox="0 0 24 24" fill="currentColor" xmlns="http://www.w3.org/2000/svg">
<path d="M13.5874 8.42192C12.673 8.42192 8.74709 8.5098 6.21997 12.2371V8.42192C6.21997 6.07203 4.26879 4.16066 1.86993 4.16066C1.06926 4.16066 0.419922 4.79673 0.419922 5.58108C0.419922 6.36544 1.06926 7.0015 1.86993 7.0015C2.66925 7.0015 3.31995 7.63894 3.31995 8.42192V19.7853C3.31995 21.3522 4.62044 22.6261 6.21997 22.6261H14.1951C14.5956 22.6261 14.92 22.3083 14.92 21.9159V21.2057C14.92 20.4213 14.2707 19.7853 13.47 19.7853H12.02L17.8201 15.524V21.9159C17.8201 22.3083 18.1445 22.6261 18.5451 22.6261H19.9951C20.3957 22.6261 20.7201 22.3083 20.7201 21.9159V12.7658C20.2538 12.8843 19.7735 12.9673 19.2701 12.9673C16.4693 12.9673 14.1262 11.012 13.5874 8.42192ZM20.7201 4.16066H17.8201L14.92 1.31982V7.28559C14.92 9.63904 16.8676 11.5468 19.2701 11.5468C21.6726 11.5468 23.6201 9.63904 23.6201 7.28559V1.31982L20.7201 4.16066ZM17.4576 7.71171C17.057 7.71171 16.7325 7.39387 16.7325 7.0015C16.7325 6.60914 17.057 6.29129 17.4576 6.29129C17.8581 6.29129 18.1826 6.60914 18.1826 7.0015C18.1826 7.39387 17.8581 7.71171 17.4576 7.71171ZM21.0826 7.71171C20.682 7.71171 20.3576 7.39387 20.3576 7.0015C20.3576 6.60914 20.682 6.29129 21.0826 6.29129C21.4831 6.29129 21.8076 6.60914 21.8076 7.0015C21.8076 7.39387 21.4831 7.71171 21.0826 7.71171Z" />
</svg>
