<svg height="512pt" viewBox="-25 0 512 512.00026" width="512pt" xmlns="http://www.w3.org/2000/svg"><path d="m406.835938 7.550781c5.636718-.453125 11.085937 2.097657 14.300781 6.75 17.179687 24.828125 65.660156 112.816407-2.910157 238.632813l-140.242187-149.421875c.003906 0 45.851563-89.265625 128.851563-95.960938zm0 0" fill="#ffa83f"/><path d="m311.132812 133.453125 67.929688 111.152344c43.730469-80.238281 31.664062-140.441407 17.796875-172.824219-2.472656-5.777344-9.121094-8.515625-14.941406-6.15625-42.871094 17.367188-69.121094 64.746094-70.785157 67.828125zm-.085937.160156c.007813-.019531.039063-.078125.082031-.160156v-.003906zm0 0" fill="#ffb2c1"/><path d="m54.472656 7.550781c-5.632812-.453125-11.082031 2.097657-14.296875 6.75-17.179687 24.828125-65.660156 112.816407 2.910157 238.632813l140.238281-149.421875s-45.847657-89.265625-128.851563-95.960938zm0 0" fill="#ffa83f"/><path d="m436.535156 213.511719c-11.636718-29.585938-28.320312-59.074219-52.226562-83.730469-24.878906-25.664062-54.65625-43.328125-88.964844-52.875-11.4375 15.078125-17.355469 26.605469-17.355469 26.605469l140.238281 149.421875c7.40625-13.59375 13.445313-26.742188 18.308594-39.421875zm0 0" fill="#f39c18"/><path d="m43.085938 252.933594 140.238281-149.421875s-5.921875-11.527344-17.359375-26.605469c-34.304688 9.546875-64.085938 27.210938-88.960938 52.875-23.90625 24.65625-40.589844 54.144531-52.226562 83.730469 4.863281 12.679687 10.898437 25.828125 18.308594 39.421875zm0 0" fill="#f39c18"/><path d="m79.394531 65.625c-5.820312-2.359375-12.46875.378906-14.941406 6.15625-13.867187 32.382812-25.9375 92.585938 17.792969 172.824219l67.933594-111.152344c-1.667969-3.082031-27.914063-50.460937-70.785157-67.828125zm70.789063 67.824219-.003906.003906c.046874.085937.078124.144531.085937.160156zm0 0" fill="#ffb2c1"/><g fill="#ff889e"><path d="m311.046875 133.613281c.007813-.019531.039063-.078125.082031-.160156v-.003906zm0 0"/><path d="m408.125 159.097656c-7.011719-10.277344-14.914062-20.132812-23.816406-29.316406-13.425782-13.851562-28.28125-25.367188-44.5-34.542969-17.5 17.976563-27.660156 36.335938-28.675782 38.214844l67.929688 111.152344c17.339844-31.816407 25.902344-60.476563 29.0625-85.507813zm0 0"/><path d="m150.183594 133.449219-.003906.003906c.046874.082031.078124.140625.085937.160156zm0 0"/><path d="m77 129.78125c-8.902344 9.183594-16.800781 19.039062-23.8125 29.316406 3.160156 25.03125 11.71875 53.691406 29.058594 85.507813l67.933594-111.152344c-1.015626-1.878906-11.175782-20.238281-28.675782-38.214844-16.222656 9.175781-31.078125 20.691407-44.503906 34.542969zm0 0"/></g><path d="m124.988281 492.875c-56.878906-16.167969-96.816406-52.738281-96.816406-130.519531 0 0-8.179687-263.839844 202.484375-263.839844 210.660156 0 202.480469 263.839844 202.480469 263.839844 0 77.78125-39.933594 114.351562-96.8125 130.519531zm0 0" fill="#f8b459"/><path d="m124.988281 492.875h30c-56.878906-16.167969-96.816406-52.738281-96.816406-130.519531 0 0-7.78125-251.140625 187.472656-263.375-4.988281-.316407-9.992187-.46875-14.988281-.46875-210.664062 0-202.484375 263.839843-202.484375 263.839843 0 1.214844.011719 2.421876.03125 3.617188 1.222656 75.304688 40.792969 110.988281 96.785156 126.90625zm0 0" fill="#ffa83f"/><path d="m387.117188 369.175781c0 41.089844-11.78125 88.917969-50.792969 123.699219-31.355469 8.917969-67.871094 11.625-105.667969 11.625s-74.316406-2.707031-105.671875-11.625c-39.011719-34.78125-50.792969-82.609375-50.792969-123.699219 0-48.554687 61.03125-62.371093 90.625-66.226562 8.773438-1.132813 15.730469-7.824219 17.394532-16.503907 3.511718-18.316406 14.441406-46.804687 48.445312-46.804687 34 0 44.933594 28.488281 48.441406 46.804687 1.667969 8.679688 8.621094 15.371094 17.394532 16.503907 29.597656 3.855469 90.625 17.671875 90.625 66.226562zm0 0" fill="#f9e09d"/><path d="m154.988281 492.875c-19.859375-5.648438-37.648437-13.78125-52.398437-25.285156 6.203125 8.9375 13.601562 17.445312 22.398437 25.285156 5.878907 1.671875 11.9375 3.125 18.15625 4.382812 26.9375 5.453126 56.800781 7.242188 87.511719 7.242188 5.027344 0 10.027344-.050781 15-.15625-32.417969-.675781-63.484375-3.738281-90.667969-11.46875zm0 0" fill="#f8b459"/><path d="m257.621094 315.015625c-.007813-2.644531-2.238282-4.746094-4.882813-4.746094h-44.167969c-2.640624 0-4.875 2.101563-4.882812 4.746094v.046875c0 11.800781 12.074219 21.375 26.96875 21.375 14.890625 0 26.964844-9.574219 26.964844-21.375 0-.015625 0-.03125 0-.046875zm0 0" fill="#423e4f"/><path d="m100.683594 287.527344h-16.140625c-4.140625 0-7.5 3.359375-7.5 7.5s3.359375 7.5 7.5 7.5h16.140625c4.144531 0 7.5-3.359375 7.5-7.5s-3.355469-7.5-7.5-7.5zm0 0" fill="#ff889e"/><path d="m376.765625 287.527344h-16.140625c-4.140625 0-7.5 3.359375-7.5 7.5s3.359375 7.5 7.5 7.5h16.140625c4.140625 0 7.5-3.359375 7.5-7.5s-3.359375-7.5-7.5-7.5zm0 0" fill="#ff889e"/><path d="m230.710938 343.9375c19.003906 0 34.464843-12.953125 34.464843-28.945312-.019531-6.738282-5.574219-12.222657-12.382812-12.222657h-44.167969c-6.808594 0-12.363281 5.484375-12.378906 12.292969 0 15.921875 15.460937 28.875 34.464844 28.875zm19.078124-26.167969c-1.824218 6.277344-9.820312 11.167969-19.078124 11.167969-9.25 0-17.238282-4.878906-19.070313-11.167969zm0 0"/><path d="m152.492188 275.449219v-16.023438c0-4.140625-3.355469-7.5-7.5-7.5-4.140626 0-7.5 3.359375-7.5 7.5v16.023438c0 4.140625 3.359374 7.5 7.5 7.5 4.144531 0 7.5-3.359375 7.5-7.5zm0 0"/><path d="m323.925781 275.449219v-16.023438c0-4.140625-3.355469-7.5-7.5-7.5-4.140625 0-7.5 3.359375-7.5 7.5v16.023438c0 4.140625 3.359375 7.5 7.5 7.5 4.144531 0 7.5-3.359375 7.5-7.5zm0 0"/><path d="m273.484375 354.386719c-3.117187-2.726563-7.859375-2.40625-10.582031.710937-3.226563 3.691406-8.0625 5.808594-13.273438 5.808594-5.210937 0-10.046875-2.117188-13.273437-5.808594-1.40625-1.617187-3.503907-2.554687-5.644531-2.554687-2.144532 0-4.234376.9375-5.648438 2.554687-3.226562 3.691406-8.0625 5.808594-13.269531 5.808594-5.210938 0-10.046875-2.117188-13.273438-5.808594-2.726562-3.117187-7.464843-3.4375-10.582031-.710937-3.117188 2.726562-3.4375 7.464843-.710938 10.585937 6.074219 6.949219 15.027344 10.933594 24.566407 10.933594 6.902343 0 13.496093-2.097656 18.917969-5.886719 5.421874 3.789063 12.015624 5.886719 18.917968 5.886719 9.539063 0 18.492188-3.984375 24.566406-10.933594 2.726563-3.121094 2.40625-7.859375-.710937-10.585937zm0 0"/><path d="m289.53125 98.667969c7.34375-11.8125 22.925781-34.140625 45.738281-52.714844 3.210938-2.617187 3.695313-7.339844 1.078125-10.550781-2.613281-3.214844-7.335937-3.695313-10.550781-1.082032-27.769531 22.613282-45.183594 49.675782-51.625 60.726563-13.742187-2.675781-28.234375-4.03125-43.464844-4.03125-15.203125 0-29.703125 1.351563-43.460937 4.039063-4.726563-8.101563-15.375-24.835938-31.710938-42.160157-29.867187-31.664062-64.585937-49.929687-100.40625-52.8203122-8.210937-.6640628-16.375 3.1757812-21.066406 9.9570312-9.425781 13.625-26.109375 42.738281-31.960938 84.679688-7.152343 51.25 3.972657 104.785156 33.03125 159.152343-11.050781 40.035157-13.671874 76.710938-14.261718 94.285157-.140625 4.140624 3.105468 7.609374 7.242187 7.75 4.167969.144531 7.609375-3.105469 7.75-7.246094.667969-19.839844 4.003907-64.957032 19.902344-110.703125.015625-.046875.03125-.09375.046875-.140625 9.164062-26.136719 21.890625-51.269532 39.761719-72.570313 33.28125-39.660156 84.097656-59.222656 135.136719-59.222656 53.394531 0 106.304687 21.65625 139.621093 64.78125.078125.097656.152344.199219.230469.296875 28.050781 36.453125 41.523438 81.75 47.964844 115.292969 8.078125 42.074219 7.179687 75.40625 7.167968 75.734375-.003906.078125-.003906.15625-.003906.234375 0 35.394531-8.300781 62.746093-25.378906 83.613281-9.675781 11.820312-22.066406 21.410156-37.507812 28.972656 17.171874-23.394531 26.984374-51.601562 30.378906-80.289062.988281-8.339844 1.476562-16.753906 1.488281-25.152344 0-.109375.003906-.21875.003906-.324219 0-23.773437-13.214843-43.316406-38.214843-56.511719-18.164063-9.585937-38.691407-14.515624-58.949219-17.152343-5.488281-.71875-9.957031-5.082031-10.992188-10.480469-1.941406-10.125-5.355469-20.097656-10.980469-28.789062-10-15.453126-26.472656-24.105469-44.828124-24.105469-25.054688 0-43.945313 16.058593-52.113282 39.125-1.511718 4.277343-2.757812 8.863281-3.695312 13.765625-1.738282 9.085937-9.683594 10.1875-17.320313 11.390625-21.347656 3.367187-43.296875 9.34375-61.4375 21.488281-19.28125 12.90625-29.398437 30.464844-29.398437 51.269531 0 35.878907 8.933594 72.039063 29.292968 102.136719.839844 1.214844 1.695313 2.425781 2.578126 3.628906-13.644532-6.683594-24.902344-14.960937-34.042969-24.976562-16.699219-18.296875-25.945313-41.960938-28.273438-72.339844-.3125-4.128906-3.925781-7.222656-8.050781-6.90625-4.128906.316406-7.21875 3.921875-6.902344 8.050781 2.554688 33.375 13.371094 60.730469 32.144532 81.304688 16.792968 18.402343 39.519531 31.488281 69.5 40.011719 28.578124 8.128906 62.804687 11.914062 107.71875 11.914062 44.914062 0 79.144531-3.785156 107.726562-11.914062 32.417969-9.214844 56.453125-23.8125 73.484375-44.617188 19.074219-23.308594 28.753906-54.597656 28.769531-93.003906.074219-2.617188.808594-35.765625-7.359375-78.527344-1.777343-9.296875-4.078125-19.460938-7.039062-30.09375 68.59375-128.378906 18.25-218.976562 1.066406-243.8125-4.707031-6.808594-12.777344-10.625-21.066406-9.9570312-18.953125 1.5273432-37.539063 7.2695312-55.25 17.0664062-3.625 2.007813-4.9375 6.570313-2.929688 10.195313 2.003907 3.625 6.566407 4.9375 10.191407 2.929687 15.828124-8.757813 32.378906-13.882813 49.191406-15.238281 2.964844-.238282 5.851562 1.117187 7.527344 3.539062 55.078124 79.609375 24.847656 171.339844 4.835937 214.511719-3.976563-11.425781-8.476563-22.226563-13.476563-32.378906 19.179688-58.996094 9.277344-104.191407-2.574218-131.871094-4.015625-9.375-15.207032-13.984375-24.652344-10.152344-27.046875 10.953125-47.671875 32.628907-61.113281 50.644531-6.882813-3.269531-14.023438-6.101562-21.421875-8.496093-.289063-.097657-5.007813-1.570313-7.089844-2.15625zm-248.03125 134.585937c-54.265625-113.640625-10.457031-192.496094 4.898438-214.6875 1.667968-2.414062 4.609374-3.769531 7.527343-3.539062 32.398438 2.613281 62.816407 18.714844 90.414063 47.863281 13.0625 13.789063 22.371094 27.417969 27.558594 35.78125-6.703126 1.878906-13.308594 4.144531-19.753907 6.78125-2.96875 1.214844-5.890625 2.5-8.769531 3.867187-13.441406-18.015624-34.066406-39.691406-61.109375-50.648437-9.488281-3.839844-20.625.746094-24.652344 10.15625-11.851562 27.675781-21.757812 72.867187-2.578125 131.859375-.160156.320312-6.074218 13.109375-8.574218 19.308594-1.730469 4.328125-3.390626 8.738281-4.960938 13.257812zm88.40625-116.792968c-15.933594 9.621093-30.222656 21.414062-42.578125 35.351562-7.964844 8.988281-15.054687 18.769531-21.335937 29-.253907.410156-.515626.8125-.769532 1.226562-12.089844-47.6875-3.707031-84.214843 6.179688-107.308593.636718-1.488281 2.097656-2.449219 3.722656-2.449219.511719 0 1.023438.097656 1.507812.296875 23.714844 9.601563 42.273438 29.5 53.308594 43.859375-.011718.007812-.023437.015625-.035156.023438zm-1.105469 369.675781c-12.449219-11.371094-22.847656-25.027344-30.28125-40.171875-11.695312-23.832032-16.773437-50.347656-16.773437-76.789063 0-12.585937 4.644531-23.191406 14.109375-32.070312 18.691406-17.515625 45.347656-23.507813 69.980469-26.71875 11.855468-1.542969 21.550781-10.828125 23.800781-22.53125.535156-2.804688 1.222656-5.6875 2.089843-8.5625 4.167969-13.804688 12.589844-27.449219 29.46875-31.167969 2.910157-.640625 6.078126-.988281 9.515626-.988281 12.03125 0 20.71875 4.238281 26.980468 10.5625 8.050782 8.128906 12.09375 19.707031 14.09375 30.160156 2.292969 11.929687 11.855469 20.984375 23.792969 22.527344 18.503906 2.390625 37.277344 6.785156 53.878906 15.546875 20.332031 10.730468 30.214844 24.875 30.214844 43.242187 0 41.953125-13.425781 84.472657-44.058594 114.15625-.570312.550781-2.570312 2.421875-2.992187 2.804688-26.875 7.410156-59.328125 10.863281-101.910156 10.863281-42.582032 0-75.035157-3.453125-101.910157-10.863281zm202.675781-369.699219c11.039063-14.359375 29.597657-34.253906 53.3125-43.859375 1.949219-.792969 4.355469.113281 5.230469 2.152344 9.886719 23.09375 18.269531 59.625 6.175781 107.308593-.226562-.378906-.46875-.746093-.699218-1.121093-12-19.566407-27.210938-37.539063-45.390625-51.777344-.03125-.019531-.058594-.042969-.089844-.066406-5.914063-4.570313-12.0625-8.820313-18.507813-12.617188-.007812-.007812-.019531-.011719-.03125-.019531zm0 0"/></svg>