<svg height="512" viewBox="0 0 64 64" width="512" xmlns="http://www.w3.org/2000/svg"><g id="Filled_outline" data-name="Filled outline"><path d="m31 35 4 2 3 8h-7z" fill="#f98c96"/><path d="m11 61h18l2-16v-10h-22v10z" fill="#ffd782"/><path d="m7 22v-13a6 6 0 0 1 6-6h12a4 4 0 0 1 4 4v5h-18v16h-4a4 4 0 0 1 -4-4v-2z" fill="#394d5c"/><path d="m35 23 6-2h4l6 2 2 4-2 10h-16l-2-10z" fill="#d3843d"/><path d="m45 21s4.769-8.072 7-7c2.04.981-1 9-1 9z" fill="#ad6327"/><path d="m41 21s-4.769-8.072-7-7c-2.04.981 1 9 1 9z" fill="#ad6327"/><path d="m41 30c0 1.105.9 3 2 3s2-1.895 2-3-.9-1-2-1-2-.1-2 1z" fill="#301a12"/><path d="m45 37h-4-6l1 24h5v-6h4v6h5l1-24z" fill="#ad6327"/><path d="m56 40c-4 0-5-3-5-3l-1 24h11v-22a14.473 14.473 0 0 1 -5 1z" fill="#d3843d"/><path d="m11 12h18v19h-18z" fill="#ffd782"/><path d="m11 16a4 4 0 0 0 0 8z" fill="#f9bb4b"/><path d="m11 61-2-16v-10h4l6 5h2l6-5h4v10l-2 16z" fill="#e33e5c"/><path d="m27 35v7l-6-2z" fill="#fcf05a"/><path d="m15.25 41.25 3.75-1.25-6-5v4z" fill="#fcf05a"/><path d="m9 35 12 12 18 3c1.283.192 2 1 2 3v.007c0 1.493-1.51 2.058-3 1.993l-20-1-9-10z" fill="#ffd782"/><path d="m18 44-9-9v9l5.17 5.745z" fill="#f98c96"/><path d="m48 33h-2a1 1 0 0 1 -1 1 .982.982 0 0 1 -.777-.4 4.757 4.757 0 0 0 1.777-3.6 1.93 1.93 0 0 0 -.531-1.426 2.884 2.884 0 0 0 -2.213-.574h-.512a2.872 2.872 0 0 0 -2.213.575 1.93 1.93 0 0 0 -.531 1.425 4.757 4.757 0 0 0 1.777 3.6.982.982 0 0 1 -.777.4 1 1 0 0 1 -1-1h-2a2.987 2.987 0 0 0 5 2.22 2.987 2.987 0 0 0 5-2.22zm-5-1c-.321-.043-.994-1.164-1-1.982a6.1 6.1 0 0 1 .728-.018h.544a6.108 6.108 0 0 1 .728.019c-.009.817-.682 1.938-1 1.981z"/><path d="m49 26a1 1 0 0 1 -2 0h-2a3 3 0 0 0 6 0z"/><path d="m38 27a1 1 0 0 1 -1-1h-2a3 3 0 0 0 6 0h-2a1 1 0 0 1 -1 1z"/><path d="m61.582 38.187a.991.991 0 0 0 -.905-.133 13.6 13.6 0 0 1 -4.677.946 4.107 4.107 0 0 1 -3.958-2.114l1.938-9.686a1 1 0 0 0 -.085-.643l-1.807-3.617c1.237-3.358 2.741-8.69.345-9.841-.9-.432-3.458-.579-7.993 6.9h-2.88c-4.537-7.481-7.1-7.333-7.993-6.9-2.4 1.151-.892 6.483.345 9.841l-1.812 3.613a1 1 0 0 0 -.085.643l1.6 8-2.175-1.076a.978.978 0 0 0 -.44-.12h-22a1 1 0 0 0 -1 1v10a.861.861 0 0 0 .008.124l2 16a1 1 0 0 0 .992.876h18a1 1 0 0 0 .992-.876l.685-5.489 4.111.206.213 5.2a1 1 0 0 0 .999.959h5a1 1 0 0 0 1-1v-5h2v5a1 1 0 0 0 1 1h16a1 1 0 0 0 1-1v-22a1 1 0 0 0 -.418-.813zm-10.04-23.3c.5.533-.047 3.668-1.15 6.859l-3.881-1.294c2.141-3.365 4.395-5.675 5.031-5.568zm-17.113.013a.262.262 0 0 1 .064-.007c.74 0 2.919 2.293 5 5.553l-3.881 1.294c-1.107-3.188-1.654-6.321-1.183-6.84zm-2.429 21.718 2.026 1.013.266 6.369h-2.292zm-.118 9.382h2.494l.093 2.231-2.808-.468zm-4.882-3a1 1 0 0 0 1-1v-6h2v8.938l-.313 2.5-8.207-1.372-4.38-4.379 2.061-.687h1.678l5.845 1.948a.983.983 0 0 0 .316.052zm-1-2.388-2.981-.993 2.981-2.484zm-1.762-4.612-3.6 3h-1.276l-3.6-3zm-10.238 1.135 2.981 2.484-1.461.481-1.52-1.514zm-2-1.135v.586l-.586-.586zm-2 7.616v-6.2l6.713 6.713-2.661 3.992zm18.117 16.384h-16.234l-1.641-13.125 7.015 7.794a1 1 0 0 0 .693.33l10.724.536zm11.883 0h-3.04l-.166-4.059 1.163.059c.09 0 .18.006.269.006a5.107 5.107 0 0 0 1.774-.306zm-.217-6.441a2.478 2.478 0 0 1 -1.733.441l-19.585-.979-3.032-3.369 2.723-4.083 2.137 2.137a1 1 0 0 0 .542.279l18.017 3c.484.073 1.148.172 1.148 2.018a.706.706 0 0 1 -.217.556zm9.258 6.441h-3.041v-19h-2v13h-2v-13h-2v8.246a3.742 3.742 0 0 0 -.835-.232l-2.68-.447-.443-10.567h13.916zm-4.041-24h-9.18l-1.772-8.859 1.661-3.324 5.453-1.817h3.676l5.453 1.817 1.661 3.324-1.772 8.859zm15 24h-8.958l.845-20.274a6.572 6.572 0 0 0 4.113 1.274 13.491 13.491 0 0 0 4-.625z"/><path d="m6 9v12h-3a1 1 0 0 0 -1 1v2a5.006 5.006 0 0 0 5 5h3v2a1 1 0 0 0 1 1h18a1 1 0 0 0 1-1v-24a5.006 5.006 0 0 0 -5-5h-12a7.008 7.008 0 0 0 -7 7zm4 18h-3a3 3 0 0 1 -3-3v-1h3 .022a4.993 4.993 0 0 0 2.978 1.9zm0-4.171a3 3 0 0 1 0-5.658zm18 7.171h-16v-17h16zm-15-26h12a3 3 0 0 1 3 3v4h-2v-3h-2v3h-2v-3h-2v3h-2v-3h-2v3h-2v-3h-2v3h-1a1 1 0 0 0 -1 1v3.1a4.954 4.954 0 0 0 -2 .925v-7.025a5.006 5.006 0 0 1 5-5z"/><path d="m24 15h2v2h-2z"/><path d="m14 15h2v2h-2z"/><path d="m19 17h2v4h-2z"/><path d="m20 28a6.006 6.006 0 0 0 6-6h-2a4 4 0 0 1 -8 0h-2a6.006 6.006 0 0 0 6 6z"/></g></svg>