<svg height="512" viewBox="0 0 64 64" width="512" xmlns="http://www.w3.org/2000/svg"><g id="Filled_outline" data-name="Filled outline"><path d="m29 22 3.163-4.325a10.04 10.04 0 1 1 3.037 3.459z" fill="#fcf05a"/><path d="m39 35 6-2h4l6 2 2 4-1.412 7.058a3.659 3.659 0 0 1 -3.588 2.942h-13l-2-10z" fill="#d3843d"/><path d="m49 33s4.769-8.072 7-7c2.04.981-1 9-1 9z" fill="#ad6327"/><path d="m45 33s-4.769-8.072-7-7c-2.04.981 1 9 1 9z" fill="#ad6327"/><path d="m45 42c0 1.1.9 3 2 3s2-1.9 2-3-.9-1-2-1-2-.1-2 1z" fill="#301a12"/><path d="m3 13h18v20h-18z" fill="#ffd782"/><path d="m21 17a4 4 0 0 1 0 8z" fill="#f9bb4b"/><path d="m9 25h8a0 0 0 0 1 0 0v2a4 4 0 0 1 -4 4 4 4 0 0 1 -4-4v-2a0 0 0 0 1 0 0z" fill="#d9176c"/><path d="m17 5a2 2 0 0 1 -2 2h-10a2 2 0 0 0 -2 2v4h18v-10h-2a2 2 0 0 0 -2 2z" fill="#394d5c"/><path d="m3 37h20v24h-20z" fill="#195c85"/><path d="m26 37h-3v24h6v-21a3 3 0 0 0 -3-3z" fill="#2d75bb"/><path d="m12 43-3-6h6z" fill="#ffd782"/><path d="m12 43 7 2-2-8h-2z" fill="#2d75bb"/><path d="m12 43-7 2 2-8h2z" fill="#2d75bb"/><g fill="#f4f4e6"><path d="m11 47h2v2h-2z"/><path d="m11 51h2v2h-2z"/><path d="m11 55h2v2h-2z"/></g><path d="m56 44-.412 2.058a3.659 3.659 0 0 1 -3.588 2.942h-13l1.9 12h20.1v-15c-4 0-5-2-5-2z" fill="#ad6327"/><path d="m41 9a3.439 3.439 0 0 1 5 0 3.521 3.521 0 0 1 0 5l-5 4-5-4a3.521 3.521 0 0 1 0-5 3.473 3.473 0 0 1 5 0z" fill="#f98c96"/><path d="m52 45h-2a1 1 0 0 1 -1 1 .984.984 0 0 1 -.777-.4 4.76 4.76 0 0 0 1.777-3.6 1.93 1.93 0 0 0 -.531-1.426 2.882 2.882 0 0 0 -2.212-.574h-.514a2.868 2.868 0 0 0 -2.212.575 1.93 1.93 0 0 0 -.531 1.425 4.76 4.76 0 0 0 1.777 3.6.984.984 0 0 1 -.777.4 1 1 0 0 1 -1-1h-2a2.987 2.987 0 0 0 5 2.22 2.987 2.987 0 0 0 5-2.22zm-5-1c-.321-.043-.993-1.164-1-1.982a6.1 6.1 0 0 1 .728-.018h.544a6.326 6.326 0 0 1 .728.019c-.01.817-.682 1.938-1 1.981z"/><path d="m41 38h2v2h-2z"/><path d="m51 38h2v2h-2z"/><path d="m21 2h-2a3 3 0 0 0 -3 3 1 1 0 0 1 -1 1h-10a3 3 0 0 0 -3 3v24a1 1 0 0 0 1 1h18a1 1 0 0 0 1-1v-7.1a5 5 0 0 0 0-9.8v-13.1a1 1 0 0 0 -1-1zm-1 30h-16v-18h16zm0-20h-16v-3a1 1 0 0 1 1-1h10a3 3 0 0 0 3-3 1 1 0 0 1 1-1h1zm4 9a3.006 3.006 0 0 1 -2 2.829v-5.658a3.006 3.006 0 0 1 2 2.829z"/><path d="m7 16h2v2h-2z"/><path d="m16 16h2v2h-2z"/><path d="m12 18h2v4h-2z"/><path d="m18 27v-2a1 1 0 0 0 -1-1h-8a1 1 0 0 0 -1 1v2a5 5 0 0 0 10 0zm-2 0a3 3 0 0 1 -6 0v-1h6z"/><path d="m30 61v-21a4 4 0 0 0 -4-4h-23a1 1 0 0 0 -1 1v24a1 1 0 0 0 1 1h26a1 1 0 0 0 1-1zm-14.382-23h.6l1.391 5.562-4.176-1.193zm-2.236 0-1.382 2.764-1.382-2.764zm-5.6 0h.6l2.184 4.369-4.176 1.193zm14.218 22h-18v-22h1.72l-1.69 6.758a1 1 0 0 0 .97 1.242 1.018 1.018 0 0 0 .274-.038l6.726-1.922 6.726 1.922a1.018 1.018 0 0 0 .274.038 1 1 0 0 0 .97-1.242l-1.69-6.758h3.72zm6 0h-4v-22h2a2 2 0 0 1 2 2z"/><path d="m11 47h2v2h-2z"/><path d="m11 51h2v2h-2z"/><path d="m11 55h2v2h-2z"/><path d="m61 45c-2.5 0-3.562-.832-3.934-1.233l.914-4.567a1 1 0 0 0 -.085-.643l-1.806-3.612c1.236-3.358 2.739-8.691.345-9.842-.9-.43-3.459-.578-7.994 6.9h-2.88c-4.532-7.475-7.089-7.333-7.994-6.9-2.394 1.151-.891 6.484.345 9.842l-1.811 3.608a1 1 0 0 0 -.085.643l3.887 21.96a1 1 0 0 0 .998.844h20.1a1 1 0 0 0 1-1v-15a1 1 0 0 0 -1-1zm-5.459-18.116c.5.533-.047 3.668-1.149 6.859l-3.881-1.294c2.14-3.362 4.403-5.675 5.03-5.565zm-17.112.016a.267.267 0 0 1 .064-.007c.74 0 2.918 2.293 5 5.553l-3.881 1.294c-1.106-3.187-1.654-6.321-1.183-6.84zm1.39 21.1-1.771-8.859 1.661-3.324 5.453-1.817h3.676l5.453 1.817 1.661 3.324-1.345 6.721a2.664 2.664 0 0 1 -2.607 2.138zm20.181 12h-8.674l1.636-5.726-1.924-.548-1.793 6.274h-2.245v-7h-2v7h-3.251l-1.579-10h11.83a4.67 4.67 0 0 0 4.568-3.745l.061-.3a7.566 7.566 0 0 0 3.371 1.005z"/><path d="m40.376 18.781a1 1 0 0 0 1.248 0l5.05-4.038a4.364 4.364 0 0 0 1.367-3.243 4.364 4.364 0 0 0 -1.367-3.239 4.381 4.381 0 0 0 -5.685-.546 4.417 4.417 0 0 0 -5.663.546 4.364 4.364 0 0 0 -1.367 3.239 4.383 4.383 0 0 0 1.417 3.281zm-3.7-9.038a2.871 2.871 0 0 1 1.857-.8 2.606 2.606 0 0 1 1.788.8 1 1 0 0 0 1.374-.012 2.47 2.47 0 0 1 3.633.022 2.364 2.364 0 0 1 .715 1.761 2.358 2.358 0 0 1 -.665 1.719l-4.378 3.487-4.326-3.455a2.364 2.364 0 0 1 -.715-1.761 2.364 2.364 0 0 1 .715-1.761z"/><path d="m28.142 22.514a.992.992 0 0 0 1 .476l5.812-.812a10.994 10.994 0 1 0 -4.954-9.178 11.031 11.031 0 0 0 1 4.573l-2.808 3.837a1 1 0 0 0 -.05 1.104zm4.9-5.308a8.892 8.892 0 0 1 -1.042-4.206 9.021 9.021 0 1 1 3.778 7.32 1 1 0 0 0 -.581-.186.906.906 0 0 0 -.138.01l-3.857.539 1.769-2.418a1 1 0 0 0 .076-1.059z"/></g></svg>