<svg width="24" height="24" viewBox="0 0 24 24" fill="currentColor" xmlns="http://www.w3.org/2000/svg">
<path d="M15.54 20.0005C15.54 21.9999 13.9519 23.6266 12 23.6266C10.048 23.6266 8.45996 21.9999 8.45996 20.0005C8.45996 18.0011 10.048 16.3745 12 16.3745C13.9519 16.3745 15.54 18.0011 15.54 20.0005ZM8.86972 1.56208L9.47152 13.8906C9.49979 14.4696 9.96628 14.9241 10.5322 14.9241H13.4677C14.0336 14.9241 14.5001 14.4696 14.5284 13.8906L15.1302 1.56208C15.1605 0.940712 14.6769 0.419922 14.0695 0.419922H9.93039C9.32301 0.419922 8.8394 0.940712 8.86972 1.56208Z" />
</svg>
