<svg width="126" height="115" viewBox="0 0 126 115" fill="none" xmlns="http://www.w3.org/2000/svg">
<path fill-rule="evenodd" clip-rule="evenodd" d="M91.5469 0C88.4844 0 86.1328 1.47857 84.4922 4.43572L63 43.8643L41.5078 4.43572C39.8672 1.47857 37.5156 0 34.4531 0H4.42969C3.22656 0 2.1875 0.438096 1.3125 1.31429C0.4375 2.19048 0 3.23096 0 4.43572V110.564C0 111.769 0.4375 112.81 1.3125 113.686C2.1875 114.562 3.22656 115 4.42969 115H28.8831C26.4222 105.245 28.1975 93.9816 31.0629 81.3547C30.9146 79.8221 30.7562 78.2713 30.5983 76.7264C29.396 64.9614 28.2295 53.5465 31.8732 53.2686C35.9953 52.9541 47.6519 63.578 54.1785 72.1949C61.0967 70.1761 63.918 70.2875 71.2174 72.1949C80.1759 60.2984 90.5981 52.8373 93.8772 53.2683C97.1562 53.6993 96.3673 67.2077 94.5171 81.3547C97.3131 99.5336 98.4032 107.706 96.3702 115H121.57C122.773 115 123.813 114.562 124.688 113.686C125.563 112.81 126 111.769 126 110.564V4.43572C126 3.23096 125.563 2.19048 124.688 1.31429C123.813 0.438096 122.773 0 121.57 0H91.5469Z" fill="#00603D"/>
<path d="M52.7122 91.3797C52.7122 94.2816 51.3972 96.634 48.7672 96.634C46.1372 96.634 44.8221 94.2816 44.8221 91.3797C44.8221 88.4779 45.4833 86.1468 48.7672 86.1255C52.7122 86.0998 52.7122 88.4779 52.7122 91.3797Z" fill="#00603D"/>
<path d="M80.6015 91.3798C80.6015 94.2816 79.7835 96.634 76.6565 96.634C74.4777 96.634 72.7114 94.2816 72.7114 91.3798C72.7114 88.4779 72.7114 86.0998 76.6565 86.1255C79.2865 86.1255 80.6015 88.4779 80.6015 91.3798Z" fill="#00603D"/>
<path d="M63.0304 96.5806L62.9876 96.5806C58.735 96.5646 57.6524 96.8829 59.8383 99.7371C60.5638 100.409 61.1933 100.908 61.7833 101.212V104.587L60.1609 106.209C59.0892 107.28 60.794 108.82 61.7833 107.831L62.9705 106.644L64.1576 107.831C65.226 108.899 66.8851 107.235 65.8196 106.17L64.1576 104.587V101.299C64.7578 101.018 65.3982 100.505 66.1384 99.7371C68.2125 96.582 67.304 96.5818 63.0304 96.5806Z" fill="#00603D"/>
</svg>
