<svg width="452" height="115" viewBox="0 0 452 115" fill="none" xmlns="http://www.w3.org/2000/svg">
<path d="M244.951 34.1021C245.795 34.1021 246.525 34.4102 247.139 35.0266C247.753 35.643 248.06 36.3749 248.06 37.2224V111.88C248.06 112.727 247.753 113.459 247.139 114.076C246.525 114.692 245.795 115 244.951 115H220.08C219.236 115 218.507 114.692 217.893 114.076C217.279 113.459 216.972 112.727 216.972 111.88V89.2283H209.487L199.47 112.111C199.086 112.958 198.434 113.652 197.513 114.191C196.668 114.73 195.709 115 194.634 115H168.497C167.806 115 167.192 114.769 166.655 114.307C166.194 113.767 165.964 113.151 165.964 112.458C165.964 112.072 166.041 111.726 166.194 111.417L180.011 85.6456C175.713 83.5654 172.297 80.5991 169.764 76.7469C167.231 72.8946 165.964 68.0022 165.964 62.0697C165.964 56.3683 167.346 51.3988 170.109 47.1613C172.873 42.9238 176.826 39.6879 181.969 37.4535C187.188 35.2192 193.253 34.1021 200.161 34.1021H244.951ZM216.972 55.5978H202.579C200.814 55.5978 199.47 56.2527 198.549 57.5625C197.705 58.7952 197.283 60.2591 197.283 61.9541C197.283 63.6491 197.743 65.0744 198.664 66.2301C199.585 67.3088 200.89 67.8481 202.579 67.8481H216.972V55.5978Z" fill="#00603D"/>
<path d="M347.151 34.1021C347.996 34.1021 348.725 34.4102 349.339 35.0266C349.953 35.643 350.26 36.3749 350.26 37.2224V55.8289C350.26 56.6764 349.953 57.4084 349.339 58.0248C348.725 58.6411 347.996 58.9493 347.151 58.9493H322.396V111.88C322.396 112.727 322.089 113.459 321.475 114.076C320.861 114.692 320.132 115 319.287 115H295.568C294.724 115 293.994 114.692 293.38 114.076C292.766 113.459 292.459 112.727 292.459 111.88V58.9493H267.704C266.86 58.9493 266.13 58.6411 265.516 58.0248C264.902 57.4084 264.595 56.6764 264.595 55.8289V37.2224C264.595 36.3749 264.902 35.643 265.516 35.0266C266.13 34.4102 266.86 34.1021 267.704 34.1021H347.151Z" fill="#00603D"/>
<path d="M388.672 111.071C387.674 113.69 385.947 115 383.491 115H361.729C361.038 115 360.424 114.769 359.887 114.307C359.426 113.767 359.196 113.151 359.196 112.458L359.311 111.764L384.412 37.9158C384.719 36.9142 385.295 36.0282 386.139 35.2577C386.984 34.4873 388.135 34.1021 389.593 34.1021H421.603C423.061 34.1021 424.213 34.4873 425.057 35.2577C425.901 36.0282 426.477 36.9142 426.784 37.9158L451.885 111.764L452 112.458C452 113.151 451.731 113.767 451.194 114.307C450.733 114.769 450.158 115 449.467 115H427.705C425.249 115 423.522 113.69 422.524 111.071L419.645 102.981H391.551L388.672 111.071ZM405.598 56.4068L397.423 80.4451H413.773L405.598 56.4068Z" fill="#00603D"/>
<path d="M167.033 20.1184C167.417 19.7331 167.609 19.2323 167.609 18.616C167.609 17.3832 166.995 16.7669 165.767 16.7669H150.453C148.994 16.7669 147.92 17.0365 147.229 17.5759L136.291 26.8213C135.907 27.2066 135.715 27.6688 135.715 28.2082C135.715 28.9016 135.907 29.4409 136.291 29.8261C136.674 30.2884 137.212 30.5195 137.903 30.5195H156.095C157.093 30.4425 157.86 30.2884 158.398 30.0573C158.935 29.8261 159.587 29.2483 160.355 28.3237L167.033 20.1184Z" fill="#00603D"/>
<path fill-rule="evenodd" clip-rule="evenodd" d="M91.1537 0C88.1044 0 85.7629 1.47833 84.1293 4.43499L62.7294 43.8571L41.3295 4.43499C39.696 1.47833 37.3545 0 34.3052 0H4.41066C3.21271 0 2.17811 0.438025 1.30686 1.31407C0.435621 2.19012 0 3.23043 0 4.43499V110.546C0 111.751 0.435621 112.791 1.30686 113.667C2.17811 114.543 3.21271 114.981 4.41066 114.981H28.759C26.3087 105.227 28.0764 93.9663 30.9295 81.3414C30.7819 79.8092 30.6241 78.2585 30.4669 76.7139C29.2698 64.9508 28.1083 53.5378 31.7363 53.2599C35.8407 52.9455 47.4473 63.5676 53.9458 72.1831C60.8343 70.1647 63.6435 70.2761 70.9115 72.1831C79.8316 60.2886 90.209 52.8287 93.474 53.2597C96.7389 53.6906 95.9534 67.1968 94.1111 81.3414C96.8952 99.5174 97.9806 107.689 95.9563 114.981H121.048C122.246 114.981 123.281 114.543 124.152 113.667C125.023 112.791 125.459 111.751 125.459 110.546V4.43499C125.459 3.23043 125.023 2.19012 124.152 1.31407C123.281 0.438025 122.246 0 121.048 0H91.1537Z" fill="#00603D"/>
<path d="M52.4858 91.3647C52.4858 94.2661 51.1765 96.6181 48.5577 96.6181C45.939 96.6181 44.6296 94.2661 44.6296 91.3647C44.6296 88.4634 45.288 86.1327 48.5577 86.1113C52.4858 86.0857 52.4858 88.4634 52.4858 91.3647Z" fill="#00603D"/>
<path d="M80.2554 91.3647C80.2554 94.2661 79.4408 96.6181 76.3273 96.6181C74.1578 96.6181 72.3992 94.2661 72.3992 91.3647C72.3992 88.4634 72.3992 86.0857 76.3273 86.1113C78.946 86.1113 80.2554 88.4634 80.2554 91.3647Z" fill="#00603D"/>
<path d="M62.7596 96.5645L62.7171 96.5645C58.4827 96.5485 57.4047 96.8667 59.5812 99.7204C60.3036 100.393 60.9304 100.891 61.5179 101.195V104.57L59.9024 106.191C58.8354 107.262 60.5329 108.802 61.5179 107.813L62.6999 106.626L63.882 107.813C64.9458 108.881 66.5978 107.217 65.5368 106.152L63.882 104.57V101.282C64.4796 101.001 65.1172 100.488 65.8543 99.7204C67.9195 96.5659 67.0148 96.5657 62.7596 96.5645Z" fill="#00603D"/>
</svg>
