<svg width="24" height="24" viewBox="0 0 24 24" fill="currentColor" xmlns="http://www.w3.org/2000/svg">
<path d="M22.8996 4.60098C21.4996 4.00611 20.0984 3.77979 18.698 3.77979C14.2524 3.77942 9.80718 6.05909 5.36158 6.05909C4.24667 6.05909 3.13247 5.91577 2.01755 5.55745C1.89231 5.51724 1.7667 5.49822 1.64399 5.49822C1.02282 5.49822 0.47998 5.98524 0.47998 6.66128V18.2611C0.47998 18.7229 0.740934 19.1605 1.15998 19.3382C2.56003 19.9335 3.96117 20.1598 5.36158 20.1598C9.80718 20.1598 14.2528 17.8801 18.6984 17.8801C19.8133 17.8801 20.9275 18.0234 22.0424 18.3818C22.1677 18.422 22.2933 18.441 22.416 18.441C23.0371 18.441 23.58 17.954 23.58 17.2779V5.67848C23.5796 5.21633 23.3187 4.77904 22.8996 4.60098V4.60098ZM12.0298 15.4798C10.4348 15.4798 9.14235 13.908 9.14235 11.9698C9.14235 10.0312 10.4352 8.45979 12.0298 8.45979C13.6244 8.45979 14.9173 10.0312 14.9173 11.9698C14.9173 13.9087 13.624 15.4798 12.0298 15.4798Z" />
</svg>
