<svg xmlns="http://www.w3.org/2000/svg" xmlns:xlink="http://www.w3.org/1999/xlink" xmlns:fi="http://pattern.flaticon.com/" x="0" y="0" width="200" height="200" viewBox="0 0 350 350"><rect x="0px" y="0px" width="100%" height="100%" opacity="0" fill="#ffffff"/><defs><path d="M386.274,213.334l-15.086,5.332A56.1,56.1,0,0,0,424,256a8,8,0,0,0,8-8V112a56.056,56.056,0,0,0-54.251-55.956A88,88,0,0,0,304,16H288a88.1,88.1,0,0,0-88,88v20.305A31.989,31.989,0,0,0,216,184h1.625a79.7,79.7,0,0,0,7.268,20.686l14.212-7.348A63.279,63.279,0,0,1,232,168V132.216c38.532-10.914,83.339-42.559,101.187-55.954L360,129.889V168a63.967,63.967,0,0,1-64,64v16a79.511,79.511,0,0,0,24-3.661V273.22a15.946,15.946,0,0,0,8,13.87V320a32,32,0,0,1-57.6,19.2L257.6,348.809A48,48,0,0,0,344,320V290.775l11.338,1.89,12.771,76.65a8,8,0,0,0,1.787,3.857c.7.822,1.424,1.744,2.2,2.787a54.1,54.1,0,0,1-2.221,66.895A8.007,8.007,0,0,0,368,448v48h16V450.817a70.1,70.1,0,0,0,.962-84.368c-.487-.656-.959-1.273-1.42-1.858l-11.52-69.144,17.245,2.874A31.89,31.89,0,0,1,416,329.88V496h16V329.88a47.837,47.837,0,0,0-40.1-47.341L336,273.22V237.285A79.4,79.4,0,0,0,374.4,184H376a31.989,31.989,0,0,0,16-59.695V104a87.574,87.574,0,0,0-5.486-30.588A40.066,40.066,0,0,1,416,112V239.19A40.077,40.077,0,0,1,386.274,213.334ZM216,168a16,16,0,0,1,0-32Zm156.944-48L343.155,60.422A8,8,0,0,0,331,57.752c-.733.587-69.706,55.37-115,61.661V104a72.081,72.081,0,0,1,72-72h16a72.081,72.081,0,0,1,72,72v16ZM392,152a16.019,16.019,0,0,1-16,16V136A16.019,16.019,0,0,1,392,152ZM272,140a12,12,0,1,1-12-12A12.013,12.013,0,0,1,272,140Zm60,12a12,12,0,1,1,12-12A12.013,12.013,0,0,1,332,152Zm-60,24h16a8,8,0,0,0,16,0h16a24,24,0,0,1-48,0ZM176,280H160V264h16Zm48,0H208V264h16ZM104,384a24.028,24.028,0,0,0-24,24v36a28.152,28.152,0,0,0,8.2,19.772A36.028,36.028,0,0,0,124,496h20c.266,0,.531-.014.8-.04l79.1-7.91,63.108,7.888a8.14,8.14,0,0,0,1,.062,8,8,0,0,0,7.152-4.422l14.807-29.613,4.69-2.342a24.16,24.16,0,0,0-7.39-45.523L272,409.062V392a8,8,0,0,0-.717-3.311l-24.854-54.678L253.767,312H280a8,8,0,0,0,7.428-5.029l16-40a8,8,0,0,0-2.99-9.627l-48-32c-.153-.1-16.86-8.5-16.86-8.5A7.994,7.994,0,0,0,232,216H152a7.994,7.994,0,0,0-3.578.845l-16,8c-.3.149-48.86,32.5-48.86,32.5a8,8,0,0,0-2.99,9.627l16,40A8,8,0,0,0,104,312h16V296H109.416L97.839,267.056,128,246.948V304a8.027,8.027,0,0,0,.41,2.53l9.161,27.481L114.848,384ZM256,246.948l30.161,20.108L274.584,296H256Zm49,182.99a8.161,8.161,0,0,1,2.5,15.374l-7.07,3.531a7.991,7.991,0,0,0-3.581,3.579l-13.469,26.937-58.384-7.3a7.921,7.921,0,0,0-1.788-.022L143.6,480H124a20.066,20.066,0,0,1-14.138-5.853A20.214,20.214,0,0,1,108.027,472H128a8,8,0,0,0,8-8V440h24v4a28.032,28.032,0,0,0,28,28h20a8,8,0,0,0,8-8V440h8a8,8,0,0,0,2.971-.572l38.014-15.206ZM144,236.944,153.889,232h76.222L240,236.944V302.7l-11.943,35.827A7.989,7.989,0,0,1,220.468,344H200V332.944l11.578-5.789A8,8,0,0,0,216,320V304a8,8,0,0,0-8-8H176a8,8,0,0,0-8,8v16a8,8,0,0,0,4.422,7.155L184,332.944V344H163.532a7.989,7.989,0,0,1-7.589-5.471L144,302.7Zm48,82.112-8-4V312h16v3.056Zm-45.461,33.892A23.963,23.963,0,0,0,163.532,360h56.936a23.963,23.963,0,0,0,16.993-7.052L256,393.733v16.851L222.459,424H208a8,8,0,0,0-8,8v24H188a12.013,12.013,0,0,1-12-12V408a8.009,8.009,0,0,1,8-8h40V384H184a24.028,24.028,0,0,0-24,24v16H128a8,8,0,0,0-8,8v24H108a12,12,0,0,1-12-12V408a8.009,8.009,0,0,1,8-8h40V384H132.424Z" transform="matrix(0.10676134377717972 0 0 0.10676134377717972 178.169095993042 135.74193674325943)" id="L1_366"/><path d="M144,200h16v16H144Zm40,16h16V200H184ZM480.837,354.967A198.213,198.213,0,0,1,496,431.2V488a8,8,0,0,1-8,8H424V480h56V431.2a182,182,0,0,0-53.657-129.539l-55.029-55.03A65.428,65.428,0,0,1,352.5,208H232V448a8,8,0,0,1-8,8,16.019,16.019,0,0,0-16,16v8h32v-8a32.057,32.057,0,0,1,24-30.988V296h16V448a8,8,0,0,1-8,8,16.019,16.019,0,0,0-16,16v8h56V296h16V444.305A31.793,31.793,0,0,1,344,440h16V405.255a116.491,116.491,0,0,1,34.343-82.912l11.314,11.314A100.588,100.588,0,0,0,376,405.255V448a8,8,0,0,1-8,8H344a16.019,16.019,0,0,0-16,16v8h82v16H24a8,8,0,0,1-8-8V294.534a55.816,55.816,0,0,1,9.406-31.064L41.3,239.633A39.779,39.779,0,0,0,48,217.5v-.506A42.11,42.11,0,0,0,31.267,183.45l-5.945-4.458A23.421,23.421,0,0,1,16,160.344v-.3A24.05,24.05,0,0,1,40,136h2.385a24.086,24.086,0,0,1,14.991,5.259l4.957,3.966A89.255,89.255,0,0,1,96,215.265a89.413,89.413,0,0,1-15.064,49.754l-12.9,19.357a23.97,23.97,0,0,0-3,6.358L49.716,286.1a40.031,40.031,0,0,1,5-10.6l12.905-19.356A73.466,73.466,0,0,0,80,215.265a73.333,73.333,0,0,0-27.658-57.546l-4.957-3.966a8.029,8.029,0,0,0-5-1.753H40a8.032,8.032,0,0,0-8,8.042v.3a7.342,7.342,0,0,0,2.922,5.847l5.943,4.458A58.186,58.186,0,0,1,64,216.992v.506a55.73,55.73,0,0,1-9.39,31.01L38.718,272.345A39.876,39.876,0,0,0,32,294.534v43.685a128.011,128.011,0,0,1,41.006-44.5l28.306-18.877A23.973,23.973,0,0,0,112,254.87V152a8,8,0,0,1,10.526-7.59l7.03,2.339A51.251,51.251,0,0,1,156.667,168h30.666a50.846,50.846,0,0,1,10.4-11.9l10.284,12.256a35,35,0,0,0-8.856,11.221A8,8,0,0,1,192,184H152a8,8,0,0,1-7.155-4.422A35.206,35.206,0,0,0,128,163.311V254.87a39.943,39.943,0,0,1-17.809,33.284L81.878,307.036A111.894,111.894,0,0,0,32,400.22V480H144a16.019,16.019,0,0,0-16-16H104a8,8,0,0,1-8-8V433.941a73.455,73.455,0,0,0-21.657-52.284l11.314-11.314A89.352,89.352,0,0,1,112,433.941V448h16a31.94,31.94,0,0,1,8,1.013V360h16v98.868A31.86,31.86,0,0,1,160,480h16V360h16V472a32.058,32.058,0,0,1,24-30.988V128H200a8,8,0,0,1-7.353-4.849l-24-56a8,8,0,0,1,3.113-9.935l32.63-20.393,8.479,13.568L186.054,67.15,205.275,112H216V80a7.994,7.994,0,0,1,.845-3.578l16-32,14.31,7.156L232,81.889V160H352V81.889L336.845,51.578l14.31-7.156,16,32A7.994,7.994,0,0,1,368,80v32h10.725l19.221-44.85L351.434,38.08a39.968,39.968,0,0,0-21.2-6.08H253.766a39.968,39.968,0,0,0-21.2,6.08l-7.2,4.5-8.481-13.568,7.2-4.5A55.944,55.944,0,0,1,253.766,16h76.468a55.944,55.944,0,0,1,29.68,8.512l52.326,32.7a8,8,0,0,1,3.113,9.935l-24,56A8,8,0,0,1,384,128H368v72a49.617,49.617,0,0,0,14.627,35.314l40.427,40.427c6.183-38.326-1.532-76.676-21.573-104.854a8,8,0,0,1,4.207-12.3l16.76-5.06a35.39,35.39,0,0,1,31.594,5.6,38.912,38.912,0,0,1,15.284,27.317l.4.32c17.606,13.937,23.988,38.417,16.036,59.615,8.635,15.3,11.219,31.368,8.9,54.211a128.993,128.993,0,0,1-5.463,24.648l-15.276-4.759a113.425,113.425,0,0,0,4.821-21.506c2.132-21.033-.307-34.408-8.7-47.7a8,8,0,0,1-.466-7.694c7.289-15.391,3.169-34.01-9.8-44.274l-3.233-2.562a8,8,0,0,1-3.031-6.27,22.715,22.715,0,0,0-9.029-18.5,19.533,19.533,0,0,0-17.431-3.13l-6.567,1.983c19.706,33.327,25.7,76.557,16.206,118.563l.948.948A198.206,198.206,0,0,1,480.837,354.967ZM352,176H232v16H352ZM248,128h16a16,16,0,0,0,13.886-8.083A15.51,15.51,0,0,1,264,104.512V95.488A15.506,15.506,0,0,1,279.488,80h17.024A15.506,15.506,0,0,1,312,95.488v9.024a15.51,15.51,0,0,1-13.886,15.405A16,16,0,0,0,312,128h16v16H312a31.933,31.933,0,0,1-24-10.856A31.933,31.933,0,0,1,264,144H248Zm32-24h16V96H280ZM264,64H248V80h16Zm64,0H312V80h16Z" transform="matrix(0.11425674706697464 0 0 0.11425674706697464 98.58161316378448 22.57057672739029)" id="L1_368"/><path d="M392,344a24,24,0,1,0,24-24A24.027,24.027,0,0,0,392,344Zm32,0a8,8,0,1,1-8-8A8.009,8.009,0,0,1,424,344ZM88,400h32v16a8,8,0,0,0,8,8h32a8,8,0,0,0,8-8V400h40v8a24.028,24.028,0,0,0,24,24h48a87.467,87.467,0,0,0,62.237-25.784c1.979-1.985,3.857-4.07,5.632-6.216H424a71.927,71.927,0,0,0,47.63-18l-10.588-12A55.934,55.934,0,0,1,424,384H358.406A88.011,88.011,0,0,0,280,256H232a24.028,24.028,0,0,0-24,24v8H168V272a8,8,0,0,0-8-8H128a8,8,0,0,0-8,8v16H88a56.066,56.066,0,0,1-55.423-47.97A56.079,56.079,0,0,1,88,192H424a56.078,56.078,0,0,1,55.423,48.03A56.066,56.066,0,0,1,424,288H376v16h48a72.05,72.05,0,0,0,56-26.779V328a56.039,56.039,0,0,1-7,27.129L487,362.893A72.081,72.081,0,0,0,496,328V152a72.081,72.081,0,0,0-72-72H88a71.694,71.694,0,0,0-56.207,27L44.277,117A55.773,55.773,0,0,1,88,96H424a56.063,56.063,0,0,1,56,56v50.815A71.883,71.883,0,0,0,424,176H88a71.883,71.883,0,0,0-56,26.815V152a55.7,55.7,0,0,1,4.066-21l-14.83-6A71.632,71.632,0,0,0,16,152V328A72.081,72.081,0,0,0,88,400Zm249.617-12.81a74.207,74.207,0,0,1-6.7,7.721A71.564,71.564,0,0,1,280,416H232a8.009,8.009,0,0,1-8-8v-8h56a56.114,56.114,0,0,0,50.6-32H344a24.026,24.026,0,0,0,4.031-.345A71.646,71.646,0,0,1,337.617,387.19ZM352,344a8.009,8.009,0,0,1-8,8H280a8,8,0,0,1,0-16h64A8.009,8.009,0,0,1,352,344ZM224,280a8.009,8.009,0,0,1,8-8h48a72.084,72.084,0,0,1,68.03,48.345A24.005,24.005,0,0,0,344,320H330.594A56.482,56.482,0,0,0,319.6,304.406,55.605,55.605,0,0,0,280,288H224Zm-56,24H280a39.774,39.774,0,0,1,31.978,16H280a24,24,0,0,0,0,48h32a40.089,40.089,0,0,1-32,16H168Zm-32-24h16V408H136Zm-24,24h8v80h-8a40,40,0,0,1,0-80ZM32,277.221A72.22,72.22,0,0,0,74.257,302.67a55.933,55.933,0,0,0-4.27,78.341A56.087,56.087,0,0,1,32,328ZM208,320a24,24,0,1,0,24,24A24.027,24.027,0,0,0,208,320Zm0,32a8,8,0,1,1,8-8A8.009,8.009,0,0,1,208,352Zm72-216a24,24,0,1,0-24,24A24.027,24.027,0,0,0,280,136Zm-32,0a8,8,0,1,1,8,8A8.009,8.009,0,0,1,248,136Zm-48,0a24,24,0,1,0-24,24A24.027,24.027,0,0,0,200,136Zm-32,0a8,8,0,1,1,8,8A8.009,8.009,0,0,1,168,136Zm-48,0a24,24,0,1,0-24,24A24.027,24.027,0,0,0,120,136Zm-32,0a8,8,0,1,1,8,8A8.009,8.009,0,0,1,88,136Zm352,0a24,24,0,1,0-24,24A24.027,24.027,0,0,0,440,136Zm-32,0a8,8,0,1,1,8,8A8.009,8.009,0,0,1,408,136Zm-48,0a24,24,0,1,0-24,24A24.027,24.027,0,0,0,360,136Zm-32,0a8,8,0,1,1,8,8A8.009,8.009,0,0,1,328,136Z" transform="matrix(0.1171875 0 0 0.1171875 271 26)" id="L1_378"/><path d="M464,392V150.219a32.077,32.077,0,0,0-4.027-15.541L424,69.927V32a16.019,16.019,0,0,0-16-16H104A16.019,16.019,0,0,0,88,32V69.927l-35.973,64.75A32.084,32.084,0,0,0,48,150.219V176H64V150.219a16.025,16.025,0,0,1,2.014-7.77L100.707,80H402.4l-30.377,54.677A32.084,32.084,0,0,0,368,150.219V360H328V288h16a8,8,0,0,0,7.761-6.06l8-32a8,8,0,0,0-2.961-8.34l-32-24,0,.007A7.951,7.951,0,0,0,320,216H224a7.951,7.951,0,0,0-4.795,1.607l-.005-.007-32,24a8,8,0,0,0-2.961,8.34l8,32A8,8,0,0,0,200,288h16v72H193.907a64,64,0,1,0,0,80H368v40H80a16.019,16.019,0,0,1-16-16V192H48V464a32.036,32.036,0,0,0,32,32H432a32.036,32.036,0,0,0,32-32V408H448v16H416V376h32v16ZM328,240l14.95,11.213L337.754,272H328ZM144,448a48,48,0,1,1,48-48A48.054,48.054,0,0,1,144,448Zm88-216h80v62.459l-11.4,28.512A7.963,7.963,0,0,1,293.167,328H280V304a8,8,0,0,0,8-8v-8a8,8,0,0,0-8-8H264a8,8,0,0,0-8,8v8a8,8,0,0,0,8,8v24H250.833a7.963,7.963,0,0,1-7.429-5.029L232,294.459Zm0,102.884A23.868,23.868,0,0,0,250.833,344h42.334A23.868,23.868,0,0,0,312,334.884V360H232ZM206.246,272l-5.2-20.787L216,240v32ZM368,424H203.313a63.79,63.79,0,0,0,0-48H368ZM104,64V32H408V64ZM408,360a8,8,0,0,0-8,8v64a8,8,0,0,0,8,8h40v24a16.019,16.019,0,0,1-16,16H384V150.219a16.025,16.025,0,0,1,2.014-7.77L416,88.473l29.986,53.977A16.018,16.018,0,0,1,448,150.219V232H400v16h48v16H400v16h48v16H400v16h48v16H400v16h48v16ZM264,264H248V248h16Zm32,0H280V248h16ZM240,408H224V392h16Zm32,0H256V392h16Zm32,0H288V392h16Zm32,0H320V392h16Zm-224-8V384a8.009,8.009,0,0,0,8-8h16A24.027,24.027,0,0,1,112,400Zm64,0H160a8.009,8.009,0,0,0-8-8V376A24.027,24.027,0,0,1,176,400Zm-24,16v16a24.027,24.027,0,0,1-24-24h16A8.009,8.009,0,0,0,152,416ZM80,160a24.049,24.049,0,0,0,9.44,19.286A24.054,24.054,0,0,0,96.4,199.6a24.6,24.6,0,0,0,7.6,5.186V256a8,8,0,0,0,13.657,5.657L136,243.313l18.343,18.344A8,8,0,0,0,168,256V204.784a24.628,24.628,0,0,0,7.6-5.186,24.054,24.054,0,0,0,6.962-20.312,24.421,24.421,0,0,0,0-38.572,24.42,24.42,0,0,0-27.275-27.274,24.418,24.418,0,0,0-38.57,0A24.418,24.418,0,0,0,89.44,140.714,24.049,24.049,0,0,0,80,160Zm72,76.687-10.343-10.344a8,8,0,0,0-11.314,0L120,236.687V210.06a24.517,24.517,0,0,0,32,0Zm-50.462-84.534a8,8,0,0,0,4.545-10.972,8.329,8.329,0,0,1,11.1-11.1,8,8,0,0,0,10.971-4.545,8.33,8.33,0,0,1,15.7,0,8,8,0,0,0,10.971,4.544,8.329,8.329,0,0,1,11.1,11.1,8,8,0,0,0,4.545,10.972,8.328,8.328,0,0,1,0,15.694,8,8,0,0,0-4.545,10.972,8.329,8.329,0,0,1-11.1,11.1,8,8,0,0,0-10.971,4.545,8.33,8.33,0,0,1-15.7,0,8,8,0,0,0-10.971-4.545,8.329,8.329,0,0,1-11.1-11.1,8,8,0,0,0-4.545-10.972,8.328,8.328,0,0,1,0-15.694ZM344,152H248V136h96ZM232,136v16H216V136Zm-16,32H344v16H216Z" transform="matrix(0.1171875 0 0 0.1171875 12 134)" id="L1_379"/></defs><g fi:class="KUsePattern"><pattern id="pattern_L1_366" width="350" height="350" patternUnits="userSpaceOnUse"><use xlink:href="#L1_366" x="-350" y="-350"/><use xlink:href="#L1_366" x="0" y="-350"/><use xlink:href="#L1_366" x="350" y="-350"/><use xlink:href="#L1_366" x="-350" y="0"/><use xlink:href="#L1_366" x="0" y="0"/><use xlink:href="#L1_366" x="350" y="0"/><use xlink:href="#L1_366" x="-350" y="350"/><use xlink:href="#L1_366" x="0" y="350"/><use xlink:href="#L1_366" x="350" y="350"/></pattern><rect x="0" y="0" width="100%" height="100%" fill="url(#pattern_L1_366)"/></g><g fi:class="KUsePattern"><pattern id="pattern_L1_368" width="350" height="350" patternUnits="userSpaceOnUse"><use xlink:href="#L1_368" x="-350" y="-350"/><use xlink:href="#L1_368" x="0" y="-350"/><use xlink:href="#L1_368" x="350" y="-350"/><use xlink:href="#L1_368" x="-350" y="0"/><use xlink:href="#L1_368" x="0" y="0"/><use xlink:href="#L1_368" x="350" y="0"/><use xlink:href="#L1_368" x="-350" y="350"/><use xlink:href="#L1_368" x="0" y="350"/><use xlink:href="#L1_368" x="350" y="350"/></pattern><rect x="0" y="0" width="100%" height="100%" fill="url(#pattern_L1_368)"/></g><g fi:class="KUsePattern"><pattern id="pattern_L1_378" width="350" height="350" patternUnits="userSpaceOnUse"><use xlink:href="#L1_378" x="-350" y="-350"/><use xlink:href="#L1_378" x="0" y="-350"/><use xlink:href="#L1_378" x="350" y="-350"/><use xlink:href="#L1_378" x="-350" y="0"/><use xlink:href="#L1_378" x="0" y="0"/><use xlink:href="#L1_378" x="350" y="0"/><use xlink:href="#L1_378" x="-350" y="350"/><use xlink:href="#L1_378" x="0" y="350"/><use xlink:href="#L1_378" x="350" y="350"/></pattern><rect x="0" y="0" width="100%" height="100%" fill="url(#pattern_L1_378)"/></g><g fi:class="KUsePattern"><pattern id="pattern_L1_379" width="350" height="350" patternUnits="userSpaceOnUse"><use xlink:href="#L1_379" x="-350" y="-350"/><use xlink:href="#L1_379" x="0" y="-350"/><use xlink:href="#L1_379" x="350" y="-350"/><use xlink:href="#L1_379" x="-350" y="0"/><use xlink:href="#L1_379" x="0" y="0"/><use xlink:href="#L1_379" x="350" y="0"/><use xlink:href="#L1_379" x="-350" y="350"/><use xlink:href="#L1_379" x="0" y="350"/><use xlink:href="#L1_379" x="350" y="350"/></pattern><rect x="0" y="0" width="100%" height="100%" fill="url(#pattern_L1_379)"/></g></svg>