<svg height="512" viewBox="0 0 64 64" width="512" xmlns="http://www.w3.org/2000/svg"><g id="Filled_outline" data-name="Filled outline"><path d="m13 11h12v10h-12z" fill="#ffd782"/><g fill="#394d5c"><path d="m13 11v-1a3 3 0 0 1 3-3h3a2 2 0 0 0 2-2 2 2 0 0 1 2-2h2v8z"/><path d="m16 14h2v2h-2z"/><path d="m20 14h2v2h-2z"/><path d="m5 45h4a0 0 0 0 1 0 0v6a2 2 0 0 1 -2 2h-2a0 0 0 0 1 0 0v-8a0 0 0 0 1 0 0z"/><path d="m24 57h6a2 2 0 0 1 2 2v2a0 0 0 0 1 0 0h-8a0 0 0 0 1 0 0v-4a0 0 0 0 1 0 0z"/></g><path d="m13 39h12v6h-12z" fill="#195c85"/><path d="m18.667 45 5.333 12h5l-5.333-12z" fill="#ffd782"/><path d="m20.444 49-1.777-4h-3.667-6v4z" fill="#f9bb4b"/><path d="m13 25h12v14h-12z" fill="#32b1cc"/><path d="m13 25h-8l-2 8a2 2 0 0 0 2 2 2 2 0 0 0 2-2l1-4h5z" fill="#ffd782"/><path d="m17 25h4a0 0 0 0 1 0 0v2a2 2 0 0 1 -2 2 2 2 0 0 1 -2-2v-2a0 0 0 0 1 0 0z" fill="#ffd782"/><path d="m38 46h12v8h-12z" fill="#995f5b"/><path d="m38 61c-1.3 0-2.271-.646-2-2l2-5h4l-2 6c-.258.775-1.183 1-2 1z" fill="#ceac9a"/><path d="m50 61c1.3 0 2.271-.646 2-2l-2-5h-4l2 6c.258.775 1.183 1 2 1z" fill="#ceac9a"/><path d="m38 50-4.7-1.568a1.9 1.9 0 0 1 -1.3-1.8 1.9 1.9 0 0 1 2.5-1.8l3.5 1.168z" fill="#ceac9a"/><path d="m50 46 2-4h4l1 3h2a2 2 0 0 1 2 2 2 2 0 0 1 -2 2h-9z" fill="#ceac9a"/><path d="m52 42-2-2a2.12 2.12 0 0 0 -3 0 2.12 2.12 0 0 0 0 3l3 3z" fill="#995f5b"/><path d="m33.766 37.462-8.766-7.462v-5l11.074 9a2.082 2.082 0 0 1 .926 1.731 2.081 2.081 0 0 1 -3.234 1.731z" fill="#ffd782"/><path d="m25 22a1 1 0 0 0 1-1v-18a1 1 0 0 0 -1-1h-2a3 3 0 0 0 -3 3 1 1 0 0 1 -1 1h-3a4 4 0 0 0 -4 4v11a1 1 0 0 0 1 1zm-9-14h3a3 3 0 0 0 3-3 1 1 0 0 1 1-1h1v6h-10a2 2 0 0 1 2-2zm-2 4h10v8h-10z"/><path d="m16 14h2v2h-2z"/><path d="m20 14h2v2h-2z"/><path d="m59 44h-1.279l-.772-2.316a1 1 0 0 0 -.949-.684h-3.586l-1.707-1.707a3.19 3.19 0 0 0 -4.414 0 3.1 3.1 0 0 0 -.327 4.014l-4.966-1.984v-3.323a1 1 0 0 0 -.757-.97l-2.333-.583a3.039 3.039 0 0 0 -1.2-3.223l-11.088-8.989a.982.982 0 0 0 -.622-.235h-20a1 1 0 0 0 -.97.758l-2 8a.984.984 0 0 0 -.03.242 3 3 0 0 0 6 .135l.781-3.135h3.219v14h-7a1 1 0 0 0 -1 1v8a1 1 0 0 0 1 1h2a3 3 0 0 0 3-3v-1h9.8l3.2 7.212v3.788a1 1 0 0 0 1 1h8a1 1 0 0 0 1-1v-2a3 3 0 0 0 -3-3h-.35l-4.462-10.038a.986.986 0 0 0 .812-.962v-12.836l7.118 6.06a1.091 1.091 0 0 0 .094.07 3.073 3.073 0 0 0 3.162.152 3.035 3.035 0 0 0 .365-.23l2.261.565v3.219a1 1 0 0 0 .628.929l5.179 2.071h-6.646l-3.348-1.117a2.9 2.9 0 0 0 -1.832 5.5l4.019 1.337v3.087l-1.929 4.822a.974.974 0 0 0 -.051.175 2.518 2.518 0 0 0 .468 2.181 3.152 3.152 0 0 0 2.512 1.015c1.517 0 2.592-.613 2.949-1.684l1.772-5.316h2.558l1.772 5.316c.357 1.071 1.432 1.684 2.949 1.684a3.152 3.152 0 0 0 2.512-1.015 2.518 2.518 0 0 0 .468-2.185.974.974 0 0 0 -.051-.175l-1.929-4.818v-3.807h8a3 3 0 0 0 0-6zm-51 7a1 1 0 0 1 -1 1h-1v-6h2zm10-25h2v1a1 1 0 0 1 -2 0zm-4 0h2v1a3 3 0 0 0 6 0v-1h2v12h-10zm-6 2a1 1 0 0 0 -.97.758l-1 4a.984.984 0 0 0 -.03.242 1 1 0 0 1 -1.995.1l1.776-7.1h6.219v2zm2 20v-2h8.017l.889 2zm8-6v2h-4v-4h10v4h-4v-2zm12 16a1 1 0 0 1 1 1v1h-6v-2zm-2.539-2h-2.811l-4.45-10h2.812zm7.969-19.317a1.062 1.062 0 0 1 -1.068-.027l-8.362-7.118v-2.438l9.519 7.731a1.079 1.079 0 0 1 .481.9 1.064 1.064 0 0 1 -.57.952zm12.279 4.024a1.12 1.12 0 0 1 1.584 0l1.49 1.49-1.057 2.115-2.019-2.019a1.12 1.12 0 0 1 0-1.586zm-14.1 6.777a.9.9 0 0 1 .281-1.751.916.916 0 0 1 .286.047l2.824.941v1.891zm5.437 12.2c-.06.18-.512.316-1.051.316a1.288 1.288 0 0 1 -.965-.283.56.56 0 0 1 -.068-.441l1.715-4.276h1.936zm-.046-6.684v-6h10v6zm12.033 6.276a.56.56 0 0 1 -.068.441 1.288 1.288 0 0 1 -.965.283c-.539 0-.991-.136-1.051-.316l-1.562-4.684h1.936zm7.967-11.276h-8v-1.764l1.618-3.236h2.661l.772 2.316a1 1 0 0 0 .949.684h2a1 1 0 0 1 0 2z"/></g></svg>