<svg width="24" height="24" viewBox="0 0 24 24" fill="currentColor" xmlns="http://www.w3.org/2000/svg">
<g clip-path="url(#clip0_1376_8081)">
<path d="M14.8962 12L23.8116 3.08411C24.0628 2.83286 24.0628 2.42572 23.8116 2.175C22.0544 0.417856 19.2049 0.417856 17.4478 2.175L11.2597 8.36356L9.92792 7.0318C10.1588 6.4468 10.2858 5.80984 10.2858 5.14284C10.2858 2.3025 7.98324 0 5.14288 0C2.30251 0 0 2.3025 0 5.14284C0 7.9832 2.30251 10.2857 5.14288 10.2857C5.38612 10.2857 5.62448 10.2686 5.8586 10.2359L7.62272 12L5.8586 13.7641C5.62448 13.7314 5.38556 13.7143 5.14288 13.7143C2.30251 13.7143 0 16.0168 0 18.8572C0 21.6975 2.30251 24 5.14288 24C7.98324 24 10.2858 21.6975 10.2858 18.8572C10.2858 18.1902 10.1588 17.5532 9.92792 16.9682L11.2597 15.6364L17.4478 21.825C19.2049 23.5822 22.0544 23.5822 23.8116 21.825C24.0628 21.5743 24.0628 21.1672 23.8116 20.9159L14.8962 12ZM5.14288 6.85716C4.19788 6.85716 3.42859 6.08784 3.42859 5.14284C3.42859 4.19784 4.19788 3.42857 5.14288 3.42857C6.08788 3.42857 6.8572 4.19784 6.8572 5.14284C6.8572 6.08784 6.08788 6.85716 5.14288 6.85716ZM5.14288 20.5714C4.19788 20.5714 3.42859 19.8022 3.42859 18.8572C3.42859 17.9122 4.19788 17.1428 5.14288 17.1428C6.08788 17.1428 6.8572 17.9122 6.8572 18.8572C6.8572 19.8022 6.08788 20.5714 5.14288 20.5714Z" />
</g>
</svg>
