<svg width="24" height="24" viewBox="0 0 24 24" fill="currentColor" xmlns="http://www.w3.org/2000/svg">
<g clip-path="url(#clip0_1376_8085)">
<path d="M13.1303 0.466752C12.8186 0.548588 12.6441 0.614116 12.5353 0.657204C12.3488 0.5931 12.216 0.546628 11.9402 0.465324C10.8898 0.156572 9.85844 0 8.87476 0C6.42208 0 4.3832 0.951872 3.13378 2.68026C1.66905 4.70644 1.65184 7.2876 2.45366 9.6348C0.991468 10.4491 0 12.0107 0 13.7997C0 16.361 2.0319 18.4563 4.56832 18.5592C4.84916 20.3836 5.55664 22.5784 7.30144 23.6024C7.72052 23.8459 8.28832 23.9911 8.82016 23.9911C9.17128 23.9911 9.48672 23.93 9.75952 23.8086C10.0932 23.6586 10.1745 23.5509 10.3748 23.3536C10.7836 22.9486 10.9027 22.4789 11.0061 21.9526C11.1305 21.3278 11.1473 20.3906 11.1473 19.5563C11.1473 19.0213 11.221 17.6887 11.4999 16.4746C11.8159 15.099 12.2368 14.611 12.5014 14.611C12.7532 14.611 12.9334 14.8433 13.0403 15.0383C13.3854 15.6673 13.6639 16.6587 13.7607 17.312C13.9975 18.931 13.8626 20.5944 14.0564 21.8637C14.2573 23.2013 15.0746 24 16.2426 24C16.7126 24 17.2092 23.8717 17.7183 23.6187C19.136 22.9147 20.0472 21.2584 20.5038 18.5555C20.8041 16.7885 20.5648 14.825 20.9494 13.3028C21.0782 12.7924 21.24 12.3789 21.5067 11.8781C25.4562 4.54716 21.5813 -1.74622 13.1303 0.466752ZM1.05864 13.7997C1.05864 11.7481 2.73012 10.0945 4.76388 10.0945C7.16172 10.0945 8.94448 12.3538 8.35816 14.6991C7.94528 16.346 6.45944 17.505 4.76388 17.505C2.7208 17.505 1.05864 15.8428 1.05864 13.7997Z" />
<path d="M5.29311 15.9172V14.3292H6.88107C7.17339 14.3292 7.41039 14.0922 7.41039 13.7999C7.41039 13.5076 7.17339 13.2706 6.88107 13.2706H5.29311V11.6826C5.29311 11.3903 5.05611 11.1533 4.76379 11.1533C4.47143 11.1533 4.23447 11.3903 4.23447 11.6826V13.2706H2.6465C2.35416 13.2706 2.11719 13.5076 2.11719 13.7999C2.11719 14.0922 2.35416 14.3292 2.6465 14.3292H4.23447V15.9172C4.23447 16.2095 4.47143 16.4465 4.76379 16.4465C5.05611 16.4465 5.29311 16.2095 5.29311 15.9172Z" />
<path d="M19.3692 4.33447C19.1314 4.50435 19.0762 4.83495 19.2461 5.07283C19.2579 5.08935 20.3732 6.81963 18.5836 10.3386C18.4033 10.6931 18.6646 11.108 19.055 11.108C19.2478 11.108 19.4338 11.0022 19.5272 10.8185C21.6338 6.67627 20.1709 4.54619 20.1076 4.45759C19.9378 4.21979 19.6072 4.16447 19.3692 4.33447Z" />
</g>
</svg>
